<?xml version="1.0" encoding="iso-8859-1"?>
<!-- Generator: Adobe Illustrator 16.0.0, SVG Export Plug-In . SVG Version: 6.00 Build 0)  -->
<!DOCTYPE svg PUBLIC "-//W3C//DTD SVG 1.1//EN" "http://www.w3.org/Graphics/SVG/1.1/DTD/svg11.dtd">
<svg version="1.1" id="Layer_1" xmlns="http://www.w3.org/2000/svg" xmlns:xlink="http://www.w3.org/1999/xlink" x="0px" y="0px"
	 width="137.123px" height="215.909px" viewBox="0 0 137.123 215.909" style="enable-background:new 0 0 137.123 215.909;"
	 xml:space="preserve">
<g>
	<path d="M73.497,0c24.112,0.653,45.438,14.34,57.093,40.725c11.715,26.521,7.562,51.59-11.546,73.979
		c-5.115,5.99-9.571,12.643-13.615,19.416c-1.776,2.975-1.962,6.985-2.51,10.588c-0.603,3.942-2.624,6.303-6.457,7.277
		c-17.562,4.481-35.062,9.196-52.714,13.28c-2.677,0.621-6.833-0.834-8.788-2.817c-1.466-1.49-0.436-5.386-0.62-8.195
		c-0.313-4.795,0.431-10.062-1.325-14.273c-3.089-7.405-6.603-15.194-11.917-21.016C-0.016,95.85-5.699,69.992,5.936,41.003
		C16.208,15.405,40.415,0.009,73.497,0z M50.513,147.459c11.451-2.812,22.188-5.615,33.017-8.01c3.306-0.73,4.593-2.229,5.244-5.429
		c2.057-10.051,6.935-18.803,14.354-25.754c25.607-23.982,23.421-62.637-4.94-83.168c-19.424-14.062-49.403-11.935-65.805,4.671
		C13.149,49.245,10.228,79.355,25.78,99.959c3.491,4.625,7.971,8.502,11.456,13.131C44.684,122.976,49.123,134.189,50.513,147.459z"
		/>
	<path d="M61.273,198.148c6.729,3.207,11.762,1.724,16.572-1.551c4.938-3.354,9.201-3.209,11.862,0.396
		c3.147,4.266,2.041,8.621-3.138,12.254c-10.765,7.549-22.103,9.162-33.698,2.344c-3.301-1.94-5.681-5.447-8.483-8.236
		c0.323-0.424,0.647-0.848,0.974-1.27c-1.643,0-3.283,0.059-4.92-0.01c-4.322-0.187-6.146-3.052-6.662-6.808
		c-0.545-3.975,1.218-6.959,5.177-7.979c18.033-4.68,36.083-9.289,54.164-13.771c4.782-1.186,8.68,1.197,9.782,5.408
		c1.203,4.584-0.966,8.588-5.954,9.924c-10.446,2.799-20.974,5.304-31.459,7.945C64.426,197.06,63.394,197.463,61.273,198.148z"/>
	<path d="M42.135,183.781c-4.614,0.03-7.812-2.568-8.348-6.935c-0.565-4.623,1.86-7.295,6.073-8.356
		c17.729-4.484,35.469-8.933,53.237-13.248c4.894-1.189,8.688,1.051,9.867,5.28c1.155,4.146-0.684,8.183-5.235,9.375
		c-18.153,4.771-36.396,9.216-54.605,13.771C42.805,183.75,42.466,183.748,42.135,183.781z"/>
</g>
</svg>
