<?xml version="1.0" encoding="iso-8859-1"?>
<!-- Generator: Adobe Illustrator 16.0.0, SVG Export Plug-In . SVG Version: 6.00 Build 0)  -->
<!DOCTYPE svg PUBLIC "-//W3C//DTD SVG 1.1//EN" "http://www.w3.org/Graphics/SVG/1.1/DTD/svg11.dtd">
<svg version="1.1" id="Layer_1" xmlns="http://www.w3.org/2000/svg" xmlns:xlink="http://www.w3.org/1999/xlink" x="0px" y="0px"
	 width="233.521px" height="259.812px" viewBox="0 0 233.521 259.812" style="enable-background:new 0 0 233.521 259.812;"
	 xml:space="preserve">
<g>
	<path d="M122.702,43.903c24.112,0.653,45.438,14.34,57.092,40.725c11.715,26.521,7.562,51.59-11.545,73.979
		c-5.116,5.99-9.572,12.643-13.616,19.416c-1.776,2.975-1.962,6.986-2.509,10.588c-0.603,3.943-2.624,6.303-6.457,7.277
		c-17.562,4.482-35.062,9.197-52.714,13.281c-2.677,0.621-6.833-0.834-8.788-2.818c-1.466-1.49-0.436-5.385-0.621-8.195
		c-0.313-4.795,0.431-10.062-1.325-14.273c-3.089-7.406-6.602-15.195-11.917-21.016c-21.113-23.113-26.797-48.972-15.161-77.961
		C65.413,59.308,89.62,43.913,122.702,43.903z M99.719,191.362c11.451-2.812,22.189-5.615,33.017-8.01
		c3.306-0.73,4.593-2.229,5.244-5.428c2.057-10.051,6.935-18.803,14.354-25.754c25.607-23.982,23.42-62.637-4.941-83.168
		C127.969,54.94,97.99,57.067,81.588,73.673c-19.233,19.475-22.154,49.586-6.602,70.188c3.491,4.625,7.971,8.502,11.456,13.131
		C93.89,166.879,98.328,178.092,99.719,191.362z"/>
	<path d="M110.479,242.051c6.73,3.207,11.762,1.723,16.572-1.551c4.939-3.354,9.201-3.209,11.863,0.396
		c3.147,4.266,2.041,8.621-3.138,12.254c-10.765,7.549-22.103,9.162-33.698,2.344c-3.301-1.941-5.681-5.447-8.484-8.236
		c0.324-0.424,0.648-0.848,0.974-1.27c-1.643,0-3.283,0.059-4.92-0.01c-4.322-0.186-6.146-3.051-6.662-6.807
		c-0.545-3.975,1.218-6.959,5.177-7.98c18.033-4.68,36.083-9.289,54.164-13.771c4.782-1.186,8.679,1.197,9.782,5.408
		c1.203,4.584-0.966,8.588-5.954,9.924c-10.446,2.799-20.974,5.303-31.459,7.945C113.631,240.963,112.6,241.366,110.479,242.051z"/>
	<path d="M91.341,227.684c-4.614,0.031-7.812-2.568-8.347-6.934c-0.566-4.623,1.86-7.295,6.073-8.357
		c17.729-4.484,35.469-8.932,53.237-13.248c4.894-1.189,8.688,1.051,9.867,5.281c1.156,4.145-0.683,8.182-5.235,9.375
		c-18.153,4.77-36.396,9.215-54.605,13.771C92.011,227.653,91.671,227.651,91.341,227.684z"/>
	<path d="M215.787,181.762c-1.782,2.324-2.979,5.48-4.906,6.021c-2.851,0.797-7.075,0.875-9.22-0.734
		c-8.21-6.154-15.97-12.945-23.602-19.83c-4.096-3.691-4.023-8.344-0.609-11.889c3.102-3.217,6.984-3.291,11.111,0.113
		c7.679,6.33,15.347,12.68,22.779,19.287C213.178,176.364,214.102,179.024,215.787,181.762z"/>
	<path d="M25.882,188.491c-1.893-1.629-5.146-3.115-5.858-5.396c-0.788-2.521-0.281-6.852,1.459-8.52
		c7.404-7.105,15.362-13.654,23.359-20.109c3.274-2.643,7.867-1.758,10.326,1.234c2.347,2.854,2.314,8.58-0.884,11.461
		c-7.386,6.652-15.093,12.955-22.792,19.25C30.293,187.385,28.448,187.573,25.882,188.491z"/>
	<path d="M210.907,111.157c-4.49,0-8.986,0.135-13.471-0.037c-4.871-0.186-7.632-2.856-7.895-7.232
		c-0.258-4.296,2.305-7.943,6.974-8.141c9.95-0.42,19.938-0.394,29.896-0.1c4.457,0.133,7.037,3.639,7.107,7.705
		c0.076,4.205-2.727,7.264-7.164,7.545c-5.131,0.326-10.298,0.076-15.447,0.076C210.907,111.034,210.907,111.095,210.907,111.157z"
		/>
	<path d="M171.352,65.075c-1.933-1.783-4.938-3.285-5.554-5.463c-0.679-2.412-0.023-6.158,1.564-8.055
		c3.387-4.043,7.739-7.279,11.723-10.82c2.738-2.435,5.454-4.902,8.293-7.217c3.891-3.17,8.643-2.936,11.636,0.424
		c2.917,3.27,2.642,8.35-1.054,11.635c-6.344,5.643-12.806,11.162-19.424,16.479C176.828,63.432,174.353,63.857,171.352,65.075z"/>
	<path d="M22.541,111.151c-4.319,0-8.638,0.045-12.956-0.013c-4.519-0.06-7.134-2.392-7.637-6.883
		c-0.495-4.423,1.834-7.835,6.561-8.425c4.911-0.613,9.933-0.402,14.904-0.469c4.151-0.055,8.313-0.146,12.455,0.067
		c4.604,0.239,8.728,4.253,8.649,8.062c-0.079,3.849-3.807,7.196-8.522,7.652c-0.33,0.032-0.664,0.033-0.996,0.033
		c-4.152,0.002-8.305,0.001-12.458,0.001C22.541,111.168,22.541,111.161,22.541,111.151z"/>
	<path d="M109.844,20.661c0-4.158-0.094-8.319,0.026-12.475c0.127-4.369,2.395-7.271,6.711-8.084
		c3.747-0.704,8.169,2.312,8.396,6.68c0.489,9.42,0.522,18.905-0.026,28.319c-0.271,4.655-4.328,7.326-8.383,6.608
		c-4.354-0.77-6.568-3.727-6.696-8.078C109.744,29.311,109.843,24.985,109.844,20.661z"/>
	<path d="M69.084,57.084c-1.827,2.385-2.962,5.4-4.757,5.865c-2.923,0.756-7.104,1-9.299-0.572
		C48.153,57.452,41.781,51.767,35.563,46c-3.591-3.326-3.566-8.229-0.758-11.227c3.27-3.484,7.618-3.744,11.575-0.393
		c5.969,5.058,11.911,10.158,17.623,15.498C65.948,51.7,67.16,54.297,69.084,57.084z"/>
</g>
</svg>
