<?xml version="1.0" encoding="utf-8"?>
<!-- Generator: Adobe Illustrator 16.0.0, SVG Export Plug-In . SVG Version: 6.00 Build 0)  -->
<!DOCTYPE svg PUBLIC "-//W3C//DTD SVG 1.1//EN" "http://www.w3.org/Graphics/SVG/1.1/DTD/svg11.dtd">
<svg version="1.1" id="Layer_1" xmlns="http://www.w3.org/2000/svg" xmlns:xlink="http://www.w3.org/1999/xlink" x="0px" y="0px"
	 width="68.814px" height="119.414px" viewBox="0 0 68.814 119.414" enable-background="new 0 0 68.814 119.414"
	 xml:space="preserve">
<g id="_x37_nVntx_1_">
	<g>
		<path fill-rule="evenodd" clip-rule="evenodd" fill="none" d="M99.691,0c-1.55,0.205-3.106,0.349-4.64,0.678
			C82.832,3.305,73.353,13.457,71.616,25.839c-0.466,3.325-0.41,6.654,0.208,9.964c0.215,1.153,0.177,1.21-0.983,1.128
			c-5.312-0.377-10.557-1.188-15.716-2.522c-12.888-3.333-24.372-9.358-34.475-18.013c-3.652-3.129-7.006-6.558-10.079-10.259
			c-0.536-0.645-0.578-0.642-0.985,0.105c-2.219,4.064-3.454,8.402-3.632,13.035c-0.357,9.221,2.854,17.009,9.438,23.431
			c1.075,1.048,2.263,1.971,3.533,2.866c-0.232,0.206-0.458,0.136-0.662,0.12c-4.181-0.326-8.145-1.419-11.871-3.354
			c-0.665-0.346-0.785-0.27-0.765,0.46c0.15,5.532,1.549,10.711,4.501,15.414c4.286,6.828,10.337,11.305,18.13,13.408
			c0.331,0.089,0.663,0.177,0.996,0.338c-1.049,0.385-2.13,0.565-3.218,0.71c-3.042,0.407-6.078,0.364-9.108-0.137
			c-0.636-0.105-0.719-0.003-0.498,0.602c3.22,8.779,9.164,14.918,17.864,18.356c2.835,1.121,5.796,1.729,8.847,1.878
			c0.28,0.014,0.574,0,0.913,0.228c-6.293,4.848-13.212,8.323-20.817,10.435c-7.607,2.112-15.342,2.688-23.236,1.81
			c0.058,0.346,0.323,0.412,0.508,0.527c5.505,3.446,11.32,6.246,17.457,8.379c5.881,2.045,11.917,3.412,18.096,4.14
			c1.798,0.211,3.603,0.389,5.417,0.431c0.245,0.005,0.488,0.062,0.732,0.095"/>
	</g>
</g>
<g id="epVahP_1_">
	<g>
		<path d="M0,50.599c0-6.072,0-12.144,0-18.216c1.702-0.531,3.566-0.776,5.08-1.638C16.969,23.978,22.604,13.441,23.275,0
			c6.41,0,12.818,0,19.228,0c0,10.029,0,20.058,0,30.622c7.463,0,14.267,0,20.947,0c0,6.884,0,13.214,0,20.087
			c-7.408,0-14.545,0-21.978,0c0,3.048-0.004,5.549,0.001,8.051c0.018,9.427-0.205,18.862,0.137,28.277
			c0.252,6.941,4.212,10.379,11.12,10.205c3.454-0.087,6.894-0.734,10.315-1.125c1.993,5.25,3.882,10.227,5.77,15.202
			c0,0.674,0,1.349,0,2.024c-5.06,2.024-10.12,4.048-15.18,6.072c-4.386,0-8.77,0-13.156,0c-0.581-0.296-1.133-0.739-1.749-0.866
			c-13.57-2.771-21.588-11.195-23.738-24.631c-1.075-6.724-0.68-13.697-0.781-20.561c-0.11-7.488-0.025-14.979-0.025-22.757
			C9.017,50.599,4.508,50.599,0,50.599z"/>
	</g>
</g>
</svg>
