<?xml version="1.0" encoding="utf-8"?>
<!-- Generator: Adobe Illustrator 16.0.0, SVG Export Plug-In . SVG Version: 6.00 Build 0)  -->
<!DOCTYPE svg PUBLIC "-//W3C//DTD SVG 1.1//EN" "http://www.w3.org/Graphics/SVG/1.1/DTD/svg11.dtd">
<svg version="1.1" id="Layer_1" xmlns="http://www.w3.org/2000/svg" xmlns:xlink="http://www.w3.org/1999/xlink" x="0px" y="0px"
	 width="146.507px" height="119.414px" viewBox="0 0 146.507 119.414" enable-background="new 0 0 146.507 119.414"
	 xml:space="preserve">
<g id="_x37_nVntx_1_">
	<g>
		<path d="M50.121,119.414c-2.637,0-5.274,0-7.912,0c-0.244-0.033-0.487-0.09-0.732-0.095c-1.814-0.042-3.619-0.22-5.417-0.431
			c-6.179-0.728-12.215-2.095-18.096-4.14c-6.137-2.134-11.951-4.934-17.457-8.379c-0.185-0.116-0.45-0.182-0.508-0.527
			c7.895,0.878,15.629,0.302,23.236-1.81c7.605-2.112,14.524-5.587,20.817-10.435c-0.339-0.227-0.632-0.213-0.913-0.228
			c-3.051-0.149-6.012-0.757-8.847-1.878c-8.7-3.438-14.644-9.578-17.864-18.356c-0.222-0.604-0.138-0.707,0.498-0.602
			c3.03,0.501,6.066,0.544,9.108,0.137c1.088-0.145,2.169-0.325,3.218-0.71c-0.333-0.162-0.665-0.249-0.996-0.338
			c-7.793-2.103-13.844-6.58-18.13-13.408C7.176,53.512,5.777,48.332,5.627,42.8c-0.02-0.73,0.1-0.806,0.765-0.46
			c3.726,1.936,7.69,3.028,11.871,3.354c0.204,0.016,0.43,0.086,0.662-0.12c-1.271-0.895-2.458-1.817-3.533-2.866
			c-6.584-6.422-9.795-14.209-9.438-23.431c0.179-4.633,1.413-8.971,3.632-13.035c0.408-0.748,0.45-0.75,0.985-0.105
			c3.073,3.701,6.427,7.13,10.079,10.259c10.103,8.655,21.587,14.681,34.475,18.013c5.16,1.334,10.404,2.145,15.716,2.522
			c1.16,0.082,1.198,0.025,0.983-1.128c-0.619-3.31-0.674-6.64-0.208-9.964C73.353,13.457,82.832,3.305,95.051,0.678
			c1.534-0.33,3.09-0.474,4.64-0.678c1.195,0,2.39,0,3.585,0c0.182,0.032,0.362,0.081,0.545,0.095
			c7.425,0.601,13.772,3.549,19.046,8.791c0.498,0.494,0.935,0.576,1.578,0.436c6.185-1.354,12.026-3.592,17.518-6.745
			c0.162-0.093,0.344-0.332,0.54-0.144c0.142,0.138-0.02,0.347-0.062,0.522c-0.02,0.079-0.056,0.155-0.084,0.232
			c-2.314,6.345-6.302,11.371-11.917,15.113c-0.164,0.109-0.374,0.175-0.496,0.466c2.89-0.326,5.671-0.918,8.422-1.674
			c2.769-0.761,5.455-1.762,8.137-2.873c0.037,0.348-0.128,0.496-0.241,0.659c-3.812,5.523-8.39,10.311-13.774,14.316
			c-0.58,0.432-0.8,0.876-0.777,1.592c0.169,5.406-0.091,10.792-1.02,16.125c-3.604,20.688-12.966,38.229-28.708,52.242
			c-6.565,5.844-13.965,10.388-22.078,13.767c-8.654,3.604-17.675,5.631-27.018,6.291C51.966,119.276,51.033,119.214,50.121,119.414
			z"/>
		<path fill-rule="evenodd" clip-rule="evenodd" fill="none" d="M99.691,0c-1.55,0.205-3.106,0.349-4.64,0.678
			C82.832,3.305,73.353,13.457,71.616,25.839c-0.466,3.325-0.41,6.654,0.208,9.964c0.215,1.153,0.177,1.21-0.983,1.128
			c-5.312-0.377-10.557-1.188-15.716-2.522c-12.888-3.333-24.372-9.358-34.475-18.013c-3.652-3.129-7.006-6.558-10.079-10.259
			c-0.536-0.645-0.578-0.642-0.985,0.105c-2.219,4.064-3.454,8.402-3.632,13.035c-0.357,9.221,2.854,17.009,9.438,23.431
			c1.075,1.048,2.263,1.971,3.533,2.866c-0.232,0.206-0.458,0.136-0.662,0.12c-4.181-0.326-8.145-1.419-11.871-3.354
			c-0.665-0.346-0.785-0.27-0.765,0.46c0.15,5.532,1.549,10.711,4.501,15.414c4.286,6.828,10.337,11.305,18.13,13.408
			c0.331,0.089,0.663,0.177,0.996,0.338c-1.049,0.385-2.13,0.565-3.218,0.71c-3.042,0.407-6.078,0.364-9.108-0.137
			c-0.636-0.105-0.719-0.003-0.498,0.602c3.22,8.779,9.164,14.918,17.864,18.356c2.835,1.121,5.796,1.729,8.847,1.878
			c0.28,0.014,0.574,0,0.913,0.228c-6.293,4.848-13.212,8.323-20.817,10.435c-7.607,2.112-15.342,2.688-23.236,1.81
			c0.058,0.346,0.323,0.412,0.508,0.527c5.505,3.446,11.32,6.246,17.457,8.379c5.881,2.045,11.917,3.412,18.096,4.14
			c1.798,0.211,3.603,0.389,5.417,0.431c0.245,0.005,0.488,0.062,0.732,0.095"/>
		<path fill-rule="evenodd" clip-rule="evenodd" fill="none" d="M50.121,119.414c0.912-0.2,1.845-0.138,2.766-0.203
			c9.343-0.659,18.364-2.687,27.018-6.291c8.113-3.378,15.513-7.923,22.078-13.767c15.742-14.013,25.103-31.554,28.708-52.242
			c0.929-5.333,1.189-10.719,1.02-16.125c-0.022-0.716,0.197-1.16,0.777-1.592c5.384-4.005,9.962-8.793,13.774-14.316
			c0.112-0.163,0.277-0.312,0.241-0.659c-2.682,1.11-5.368,2.112-8.137,2.873c-2.751,0.756-5.532,1.348-8.422,1.674
			c0.122-0.291,0.332-0.356,0.496-0.466c5.616-3.742,9.603-8.769,11.917-15.113c0.029-0.077,0.065-0.153,0.084-0.232
			c0.042-0.175,0.204-0.384,0.062-0.522c-0.195-0.188-0.377,0.05-0.54,0.144c-5.491,3.153-11.333,5.391-17.518,6.745
			c-0.643,0.141-1.08,0.059-1.578-0.436c-5.274-5.242-11.622-8.19-19.046-8.791c-0.183-0.015-0.363-0.063-0.545-0.095"/>
	</g>
</g>
</svg>
