<?xml version="1.0" encoding="utf-8"?>
<!-- Generator: Adobe Illustrator 16.0.0, SVG Export Plug-In . SVG Version: 6.00 Build 0)  -->
<!DOCTYPE svg PUBLIC "-//W3C//DTD SVG 1.1//EN" "http://www.w3.org/Graphics/SVG/1.1/DTD/svg11.dtd">
<svg version="1.1" id="Layer_1" xmlns="http://www.w3.org/2000/svg" xmlns:xlink="http://www.w3.org/1999/xlink" x="0px" y="0px"
	 width="150.24px" height="150.24px" viewBox="0 0 150.24 150.24" enable-background="new 0 0 150.24 150.24" xml:space="preserve">
<g>
	<path fill="#222222" d="M74.873,149.121c-40.692,0-73.8-33.104-73.8-73.8c0-40.691,33.108-73.799,73.8-73.799
		c40.692,0,73.801,33.108,73.801,73.799C148.674,116.018,115.565,149.121,74.873,149.121 M74.873,7.883
		c-37.186,0-67.438,30.258-67.438,67.438c0,37.187,30.251,67.439,67.438,67.439c37.188,0,67.438-30.252,67.438-67.439
		C142.311,38.142,112.061,7.883,74.873,7.883z"/>
	<polygon fill="#222222" points="111.504,72.933 77.816,72.933 108.426,42.321 107.754,41.651 76.472,72.933 72.994,72.933 
		41.604,41.543 40.926,42.213 71.646,72.933 38.221,72.933 38.221,78.021 71.381,78.021 40.926,108.475 41.603,109.15 
		72.729,78.021 76.734,78.021 108.125,109.412 108.8,108.736 78.086,78.021 111.504,78.021 	"/>
	<g>
		<path fill="#222222" d="M75.791,54.104c1.775,0,3.228-0.701,4.355-2.108l2.316,2.387c-1.838,2.068-4.006,3.103-6.499,3.103
			c-2.495,0-4.548-0.786-6.163-2.362c-1.613-1.574-2.42-3.564-2.42-5.965c0-2.401,0.822-4.404,2.467-6.011
			c1.646-1.606,3.656-2.41,6.035-2.41c2.655,0,4.881,1.011,6.672,3.035l-2.246,2.548c-1.145-1.42-2.564-2.131-4.264-2.131
			c-1.358,0-2.521,0.444-3.486,1.333c-0.966,0.888-1.447,2.084-1.447,3.59c0,1.505,0.455,2.714,1.365,3.626
			C73.389,53.649,74.492,54.104,75.791,54.104z"/>
	</g>
	<g>
		<path fill="#222222" d="M79.732,99.771l-3.873,7.828h-1.904l-3.854-7.828v9.016h-3.195V94.465h4.323l3.687,7.869l3.709-7.869
			h4.305v14.322h-3.197V99.771z"/>
	</g>
</g>
</svg>
