<?xml version="1.0" encoding="iso-8859-1"?>
<!-- Generator: Adobe Illustrator 16.0.0, SVG Export Plug-In . SVG Version: 6.00 Build 0)  -->
<!DOCTYPE svg PUBLIC "-//W3C//DTD SVG 1.1//EN" "http://www.w3.org/Graphics/SVG/1.1/DTD/svg11.dtd">
<svg version="1.1" id="Layer_20" xmlns="http://www.w3.org/2000/svg" xmlns:xlink="http://www.w3.org/1999/xlink" x="0px" y="0px"
	 width="303.667px" height="302.583px" viewBox="147.14 267.945 303.667 302.583"
	 style="enable-background:new 147.14 267.945 303.667 302.583;" xml:space="preserve">
<g>
	<path style="fill-rule:evenodd;clip-rule:evenodd;" d="M398.361,316.144c4.785,0,9.201,0,13.876,0c0,73.124,0,145.959,0,219.12
		c-4.712,0-9.114,0-13.876,0C398.361,462.259,398.361,389.422,398.361,316.144z"/>
	<path style="fill-rule:evenodd;clip-rule:evenodd;" d="M427.767,316.067c3.189,0,5.976,0,9.055,0c0,73.106,0,146.004,0,219.295
		c-2.82,0-5.717,0-9.055,0C427.767,462.501,427.767,389.499,427.767,316.067z"/>
	<path style="fill-rule:evenodd;clip-rule:evenodd;" d="M382.739,535.337c-3.144,0-6.058,0-9.276,0c0-73.123,0-145.996,0-219.174
		c3.037,0,5.964,0,9.276,0C382.739,388.981,382.739,461.861,382.739,535.337z"/>
	<path style="fill-rule:evenodd;clip-rule:evenodd;" d="M328.736,535.335c-3.133,0-6.046,0-9.27,0c0-73.113,0-145.986,0-219.168
		c3.024,0,5.951,0,9.27,0C328.736,388.973,328.736,461.851,328.736,535.335z"/>
	<path style="fill-rule:evenodd;clip-rule:evenodd;" d="M166.538,535.533c-3.266,0-6.049,0-9.102,0c0-73.117,0-146.014,0-219.292
		c2.893,0,5.792,0,9.102,0C166.538,389.158,166.538,462.169,166.538,535.533z"/>
	<path style="fill-rule:evenodd;clip-rule:evenodd;" d="M240.136,535.32c-2.965,0-5.572,0-8.655,0c0-72.957,0-145.91,0-219.163
		c2.75,0,5.493,0,8.655,0C240.136,389.175,240.136,462.115,240.136,535.32z"/>
	<path style="fill-rule:evenodd;clip-rule:evenodd;" d="M303.897,535.281c-3.026,0-5.761,0-8.829,0c0-73.143,0-145.978,0-219.118
		c2.945,0,5.695,0,8.829,0C303.897,389.155,303.897,462.113,303.897,535.281z"/>
	<path style="fill-rule:evenodd;clip-rule:evenodd;" d="M339.349,316.037c3.014,0,5.633,0,8.727,0c0,73.043,0,145.982,0,219.236
		c-2.912,0-5.646,0-8.727,0C339.349,462.246,339.349,389.405,339.349,316.037z"/>
	<path style="fill-rule:evenodd;clip-rule:evenodd;" d="M367.902,535.277c-3.043,0-5.776,0-8.84,0c0-73.145,0-145.98,0-219.118
		c2.962,0,5.713,0,8.84,0C367.902,389.049,367.902,461.89,367.902,535.277z"/>
	<path style="fill-rule:evenodd;clip-rule:evenodd;" d="M260.001,316.264c0,73.046,0,145.904,0,218.8
		c-4.717,1.602-4.671-1.254-4.669-4.307c0.026-36.633,0.019-73.264,0.02-109.895c0-33.469,0.017-66.937-0.028-100.404
		C255.319,317.47,255.309,314.854,260.001,316.264z"/>
	<path style="fill-rule:evenodd;clip-rule:evenodd;" d="M269.766,535.142c-4.385,1.441-4.445-1.16-4.438-4.133
		c0.045-17.496,0.021-34.992,0.021-52.488c0-52.486-0.005-104.975,0.018-157.462c0.001-2.658-1.015-6.345,4.399-4.832
		C269.766,388.968,269.766,461.863,269.766,535.142z"/>
	<path style="fill-rule:evenodd;clip-rule:evenodd;" d="M275.449,316.217c5.348-1.455,4.47,2.099,4.471,4.817
		c0.013,48.821,0.009,97.644,0.009,146.465c0,21.162-0.018,42.322,0.021,63.484c0.005,2.947-0.005,5.602-4.501,4.146
		C275.449,462.279,275.449,389.369,275.449,316.217z"/>
	<path style="fill-rule:evenodd;clip-rule:evenodd;" d="M211.387,535.148c0-72.945,0-145.721,0-218.92
		c1.375-0.119,2.746-0.238,4.458-0.387c0.104,1.8,0.262,3.258,0.263,4.715c0.012,69.991,0.009,139.983,0.013,209.975
		C216.121,533.371,216.779,536.738,211.387,535.148z"/>
	<path style="fill-rule:evenodd;clip-rule:evenodd;" d="M172.201,535.039c0-73.051,0-145.778,0-218.468
		c4.613-0.829,4.711-0.829,4.712,3.286c0.021,70.6,0.002,141.198,0.053,211.797C176.969,534.978,175.959,536.339,172.201,535.039z"
		/>
	<path style="fill-rule:evenodd;clip-rule:evenodd;" d="M421.976,535.115c-4.549,1.453-4.655-1.098-4.649-4.105
		c0.046-23.311,0.026-46.623,0.025-69.934c0-46.457-0.001-92.913-0.001-139.368c0-1.652,0-3.304,0-5.395
		c1.584-0.163,2.935-0.303,4.625-0.477C421.976,389.109,421.976,461.97,421.976,535.115z"/>
	<path style="fill-rule:evenodd;clip-rule:evenodd;" d="M186.738,316.449c4.784-1.532,4.829,0.961,4.822,3.724
		c-0.035,13.485-0.011,26.97-0.01,40.455c0,56.104,0.026,112.209-0.096,168.315c-0.005,2.195,1.982,6.248-2.196,6.398
		c-4.427,0.16-2.419-4.016-2.423-6.154c-0.119-68.924-0.097-137.848-0.096-206.772C186.738,320.45,186.738,318.485,186.738,316.449z
		"/>
</g>
</svg>
