<?xml version="1.0" encoding="iso-8859-1"?>
<!-- Generator: Adobe Illustrator 16.0.0, SVG Export Plug-In . SVG Version: 6.00 Build 0)  -->
<!DOCTYPE svg PUBLIC "-//W3C//DTD SVG 1.1//EN" "http://www.w3.org/Graphics/SVG/1.1/DTD/svg11.dtd">
<svg version="1.1" id="Layer_6" xmlns="http://www.w3.org/2000/svg" xmlns:xlink="http://www.w3.org/1999/xlink" x="0px" y="0px"
	 width="303.667px" height="302.583px" viewBox="147.14 267.945 303.667 302.583"
	 style="enable-background:new 147.14 267.945 303.667 302.583;" xml:space="preserve">
<g>
	<path style="fill-rule:evenodd;clip-rule:evenodd;" d="M413.205,349.662c10.649,4.554,14.722,14.086,11.146,26.099
		c-8.397,28.215-16.999,56.368-25.54,84.54c-5.5,18.145-11.001,36.287-16.573,54.408c-5.306,17.252-17.206,26.045-35.104,26.047
		c-46.327,0.006-92.654,0.045-138.98-0.016c-21.283-0.029-41.047-17.545-42.199-37.613c-0.262-4.562,1.145-9.197,1.466-13.82
		c0.273-3.938-0.263-7.951,0.23-11.846c0.335-2.65,1.672-5.229,2.831-7.713c4.615-9.904,9.538-19.674,13.885-29.691
		c1.187-2.734,0.548-6.209,1.142-9.268c0.488-2.506,1.043-5.266,2.466-7.277c6.464-9.142,11.671-19.308,12.459-30.119
		c0.657-9.028,3.743-15.507,8.595-22.702c4.602-6.823,6.358-15.566,9.342-23.475c0.232-0.615,0.554-1.391,0.373-1.94
		c-2.582-7.877,2.243-12.971,6.308-18.747c3.108-4.416,4.703-9.88,7.111-14.81c4.497-9.203,9.066-11.363,19.179-10.165
		c3.546,0.42,7.241-0.655,10.869-0.66c38.328-0.057,76.656-0.08,114.984-0.016c17.904,0.03,27.467,12.454,22.336,29.579
		c-14.607,48.748-29.491,97.414-44.273,146.109c-0.435,1.434-0.893,2.863-1.438,4.256c-6.512,16.617-11.234,19.908-29.123,19.924
		c-43.661,0.039-87.322,0.002-130.982,0.029c-3.919,0.004-8.363-0.822-10.315,4.018c-1.263,3.133,1.519,9.838,5.827,11.787
		c4.731,2.139,10.078,4.055,15.169,4.086c48.491,0.303,96.985,0.227,145.479,0.145c8.946-0.014,13.427-3.596,16.021-12.121
		c15.07-49.51,30.133-99.022,45.128-148.553C412.021,356.842,412.447,353.376,413.205,349.662z M306.132,360.857
		c12.992,0,25.985,0,38.978,0c14.175,0.001,14.175,0.001,18.151-13.516c1.441-4.902,0.369-6.551-4.681-6.559
		c-30.648-0.045-61.298-0.005-91.946-0.04c-4.258-0.005-6.871,2.063-8.246,5.918c-0.781,2.19-1.5,4.405-2.173,6.631
		c-1.874,6.192-0.926,7.542,5.443,7.556C276.483,360.88,291.308,360.857,306.132,360.857z M293.594,400.855
		c13.159,0,26.319,0,39.479,0c13.093,0,13.372-0.212,17.081-12.979c0.047-0.159,0.064-0.327,0.108-0.487
		c1.466-5.23,0.483-6.608-5.077-6.615c-30.316-0.033-60.633,0.023-90.949-0.054c-4.926-0.013-7.794,2.193-9.094,6.805
		c-0.495,1.756-1.123,3.474-1.693,5.208c-2.216,6.736-1.275,8.11,5.67,8.118C263.944,400.869,278.769,400.857,293.594,400.855z"/>
</g>
</svg>
