<?xml version="1.0" encoding="iso-8859-1"?>
<!-- Generator: Adobe Illustrator 16.0.0, SVG Export Plug-In . SVG Version: 6.00 Build 0)  -->
<!DOCTYPE svg PUBLIC "-//W3C//DTD SVG 1.1//EN" "http://www.w3.org/Graphics/SVG/1.1/DTD/svg11.dtd">
<svg version="1.1" id="Layer_1" xmlns="http://www.w3.org/2000/svg" xmlns:xlink="http://www.w3.org/1999/xlink" x="0px" y="0px"
	 width="303.667px" height="302.583px" viewBox="147.14 267.945 303.667 302.583"
	 style="enable-background:new 147.14 267.945 303.667 302.583;" xml:space="preserve">
<path d="M302.799,334.908c24.113,0.654,45.438,14.341,57.092,40.726c11.715,26.521,7.562,51.59-11.545,73.977
	c-5.116,5.992-9.572,12.643-13.616,19.416c-1.776,2.975-1.962,6.988-2.509,10.588c-0.602,3.945-2.624,6.303-6.457,7.279
	c-17.561,4.482-35.062,9.197-52.714,13.281c-2.677,0.621-6.833-0.834-8.788-2.82c-1.466-1.49-0.436-5.383-0.621-8.195
	c-0.314-4.795,0.431-10.062-1.325-14.273c-3.089-7.406-6.602-15.195-11.917-21.016c-21.114-23.113-26.797-48.971-15.161-77.961
	C245.51,350.314,269.717,334.919,302.799,334.908z M279.816,482.367c11.451-2.812,22.189-5.615,33.017-8.01
	c3.305-0.73,4.592-2.227,5.244-5.426c2.056-10.051,6.934-18.803,14.354-25.754c25.608-23.983,23.42-62.637-4.941-83.169
	c-19.424-14.062-49.404-11.935-65.805,4.671c-19.234,19.475-22.154,49.586-6.602,70.188c3.491,4.625,7.971,8.502,11.456,13.131
	C273.987,457.886,278.425,469.099,279.816,482.367z"/>
<path d="M290.575,533.058c6.731,3.207,11.762,1.721,16.573-1.551c4.939-3.355,9.201-3.209,11.863,0.396
	c3.148,4.266,2.041,8.621-3.137,12.254c-10.765,7.549-22.103,9.162-33.699,2.344c-3.301-1.941-5.681-5.447-8.484-8.236
	c0.324-0.424,0.648-0.848,0.973-1.271c-1.642,0-3.283,0.059-4.92-0.01c-4.322-0.184-6.146-3.049-6.662-6.805
	c-0.545-3.975,1.218-6.959,5.177-7.982c18.033-4.678,36.083-9.289,54.164-13.771c4.783-1.186,8.679,1.197,9.783,5.408
	c1.203,4.584-0.966,8.588-5.955,9.924c-10.446,2.799-20.973,5.303-31.459,7.945C293.728,531.97,292.697,532.371,290.575,533.058z"/>
<path d="M271.438,518.689c-4.614,0.033-7.812-2.568-8.347-6.932c-0.566-4.623,1.86-7.295,6.073-8.359
	c17.729-4.484,35.469-8.93,53.238-13.248c4.893-1.189,8.687,1.051,9.867,5.283c1.156,4.143-0.683,8.18-5.235,9.375
	c-18.154,4.768-36.396,9.213-54.606,13.77C272.108,518.658,271.768,518.656,271.438,518.689z"/>
<path d="M395.884,472.769c-1.782,2.324-2.979,5.48-4.906,6.021c-2.851,0.797-7.075,0.875-9.22-0.734
	c-8.21-6.156-15.969-12.947-23.601-19.83c-4.096-3.693-4.024-8.344-0.61-11.889c3.102-3.217,6.985-3.291,11.112,0.113
	c7.678,6.33,15.346,12.68,22.779,19.287C393.275,467.369,394.199,470.029,395.884,472.769z"/>
<path d="M205.979,479.496c-1.893-1.629-5.147-3.115-5.859-5.396c-0.788-2.521-0.281-6.852,1.459-8.52
	c7.405-7.105,15.363-13.654,23.36-20.109c3.274-2.643,7.867-1.758,10.326,1.234c2.347,2.854,2.314,8.58-0.884,11.461
	c-7.386,6.652-15.093,12.955-22.792,19.25C210.39,478.392,208.544,478.578,205.979,479.496z"/>
<path d="M391.004,402.162c-4.49,0-8.986,0.135-13.47-0.036c-4.871-0.186-7.632-2.857-7.895-7.233
	c-0.258-4.296,2.305-7.944,6.974-8.141c9.95-0.419,19.938-0.393,29.895-0.099c4.457,0.132,7.037,3.638,7.108,7.705
	c0.076,4.205-2.727,7.264-7.164,7.545c-5.131,0.326-10.298,0.076-15.448,0.076C391.004,402.04,391.004,402.101,391.004,402.162z"/>
<path d="M351.449,356.08c-1.933-1.782-4.939-3.284-5.554-5.462c-0.679-2.413-0.023-6.158,1.564-8.055
	c3.387-4.043,7.74-7.28,11.723-10.82c2.738-2.435,5.454-4.903,8.293-7.217c3.891-3.17,8.643-2.935,11.636,0.423
	c2.917,3.271,2.641,8.35-1.054,11.635c-6.344,5.643-12.806,11.163-19.424,16.48C356.925,354.438,354.45,354.863,351.449,356.08z"/>
<path d="M202.638,402.156c-4.319,0-8.638,0.045-12.956-0.012c-4.519-0.06-7.134-2.392-7.637-6.883
	c-0.495-4.423,1.834-7.834,6.561-8.425c4.911-0.613,9.932-0.402,14.904-0.468c4.151-0.055,8.313-0.147,12.455,0.067
	c4.604,0.239,8.728,4.253,8.649,8.062c-0.079,3.848-3.806,7.196-8.522,7.652c-0.33,0.032-0.664,0.033-0.996,0.033
	c-4.152,0.002-8.305,0.001-12.458,0.001C202.638,402.175,202.638,402.166,202.638,402.156z"/>
<path d="M289.941,311.666c0-4.158-0.094-8.319,0.026-12.474c0.127-4.369,2.395-7.271,6.711-8.084
	c3.747-0.704,8.169,2.313,8.396,6.68c0.489,9.42,0.522,18.905-0.027,28.319c-0.271,4.655-4.328,7.326-8.383,6.609
	c-4.353-0.77-6.568-3.727-6.696-8.078C289.841,320.317,289.94,315.99,289.941,311.666z"/>
<path d="M249.181,348.09c-1.827,2.385-2.962,5.4-4.757,5.865c-2.923,0.757-7.104,1-9.299-0.572
	c-6.876-4.925-13.247-10.61-19.466-16.377c-3.59-3.326-3.566-8.229-0.757-11.226c3.269-3.485,7.618-3.744,11.575-0.392
	c5.969,5.057,11.911,10.157,17.623,15.498C246.044,342.705,247.257,345.303,249.181,348.09z"/>
</svg>
