<?xml version="1.0" encoding="iso-8859-1"?>
<!-- Generator: Adobe Illustrator 16.0.0, SVG Export Plug-In . SVG Version: 6.00 Build 0)  -->
<!DOCTYPE svg PUBLIC "-//W3C//DTD SVG 1.1//EN" "http://www.w3.org/Graphics/SVG/1.1/DTD/svg11.dtd">
<svg version="1.1" id="Layer_3" xmlns="http://www.w3.org/2000/svg" xmlns:xlink="http://www.w3.org/1999/xlink" x="0px" y="0px"
	 width="303.667px" height="302.583px" viewBox="147.14 267.945 303.667 302.583"
	 style="enable-background:new 147.14 267.945 303.667 302.583;" xml:space="preserve">
<path d="M302.799,314.908c24.113,0.654,45.438,14.341,57.092,40.726c11.715,26.521,7.562,51.59-11.545,73.977
	c-5.116,5.992-9.572,12.643-13.616,19.416c-1.776,2.975-1.962,6.988-2.509,10.588c-0.602,3.945-2.624,6.303-6.457,7.279
	c-17.561,4.482-35.062,9.197-52.714,13.281c-2.677,0.621-6.833-0.834-8.788-2.82c-1.466-1.49-0.436-5.383-0.621-8.195
	c-0.314-4.795,0.431-10.062-1.325-14.273c-3.089-7.406-6.602-15.195-11.917-21.016c-21.114-23.113-26.797-48.971-15.161-77.961
	C245.51,330.314,269.717,314.919,302.799,314.908z M279.816,462.367c11.451-2.812,22.189-5.615,33.017-8.01
	c3.305-0.73,4.592-2.227,5.244-5.426c2.056-10.051,6.934-18.803,14.354-25.754c25.608-23.983,23.42-62.637-4.941-83.169
	c-19.424-14.062-49.404-11.935-65.805,4.671c-19.234,19.475-22.154,49.586-6.602,70.188c3.491,4.625,7.971,8.502,11.456,13.131
	C273.987,437.886,278.425,449.099,279.816,462.367z"/>
<path d="M290.575,513.058c6.731,3.207,11.762,1.721,16.573-1.551c4.939-3.355,9.201-3.209,11.863,0.396
	c3.148,4.266,2.041,8.621-3.137,12.254c-10.765,7.549-22.103,9.162-33.699,2.344c-3.301-1.941-5.681-5.447-8.484-8.236
	c0.324-0.424,0.648-0.848,0.973-1.271c-1.642,0-3.283,0.059-4.92-0.01c-4.322-0.184-6.146-3.049-6.662-6.805
	c-0.545-3.975,1.218-6.959,5.177-7.982c18.033-4.678,36.083-9.289,54.164-13.771c4.783-1.186,8.679,1.197,9.783,5.408
	c1.203,4.584-0.966,8.588-5.955,9.924c-10.446,2.799-20.973,5.303-31.459,7.945C293.728,511.97,292.697,512.371,290.575,513.058z"/>
<path d="M271.438,498.689c-4.614,0.033-7.812-2.568-8.347-6.932c-0.566-4.623,1.86-7.295,6.073-8.359
	c17.729-4.484,35.469-8.93,53.238-13.248c4.893-1.189,8.687,1.051,9.867,5.283c1.156,4.143-0.683,8.18-5.235,9.375
	c-18.154,4.768-36.396,9.213-54.606,13.77C272.108,498.658,271.768,498.656,271.438,498.689z"/>
</svg>
