<?xml version="1.0" encoding="iso-8859-1"?>
<!-- Generator: Adobe Illustrator 16.0.0, SVG Export Plug-In . SVG Version: 6.00 Build 0)  -->
<!DOCTYPE svg PUBLIC "-//W3C//DTD SVG 1.1//EN" "http://www.w3.org/Graphics/SVG/1.1/DTD/svg11.dtd">
<svg version="1.1" id="Layer_4" xmlns="http://www.w3.org/2000/svg" xmlns:xlink="http://www.w3.org/1999/xlink" x="0px" y="0px"
	 width="303.667px" height="302.583px" viewBox="147.14 267.945 303.667 302.583"
	 style="enable-background:new 147.14 267.945 303.667 302.583;" xml:space="preserve">
<g>
	<path style="fill-rule:evenodd;clip-rule:evenodd;" d="M298.126,316.467c35.632,0,71.263-0.009,106.895,0.004
		c15.74,0.005,24.503,8.64,24.514,24.299c0.032,53.739,0.031,107.479,0.004,161.217c-0.009,16.25-8.635,24.773-24.933,24.773
		c-71.264,0.005-142.526-0.03-213.789,0.041c-9.799,0.008-17.476-3.55-21.761-12.496c-1.569-3.279-2.218-7.296-2.228-10.977
		c-0.136-54.47-0.135-108.94-0.067-163.409c0.019-14.568,9.023-23.423,23.594-23.441
		C226.278,316.439,262.202,316.467,298.126,316.467z M184.101,421.734c0,1.576,0,2.999,0,4.42
		c-0.001,25.115-0.01,50.231,0.003,75.347c0.004,6.891,0.958,7.817,7.865,7.817c70.819,0.002,141.638,0.002,212.458-0.002
		c6.814,0,7.743-0.926,7.746-7.94c0.016-24.969,0.013-49.939,0-74.908c0-1.548-0.133-3.098-0.207-4.733
		C335.889,421.734,260.28,421.734,184.101,421.734z M411.638,368.838c0.202-0.618,0.447-1.025,0.45-1.435
		c0.048-8.613,0.097-17.227,0.085-25.839c-0.009-6.651-1.023-7.649-7.579-7.65c-32.267-0.005-64.533-0.003-96.799-0.003
		c-38.836,0-77.673-0.003-116.509,0.004c-6.055,0.001-7.137,1.072-7.174,7.151c-0.04,6.424-0.011,12.849-0.012,19.273
		c0,2.833,0,5.667,0,8.499C260.494,368.838,336.073,368.838,411.638,368.838z"/>
	<path style="fill-rule:evenodd;clip-rule:evenodd;" d="M254.701,474.464c17.44,0,34.472,0,51.812,0c0,5.681,0,11.158,0,16.937
		c-17.196,0-34.349,0-51.812,0C254.701,485.823,254.701,480.349,254.701,474.464z"/>
	<path style="fill-rule:evenodd;clip-rule:evenodd;" d="M236.504,474.623c0,5.598,0,10.971,0,16.712c-11.393,0-22.681,0-34.34,0
		c0-5.411,0-10.874,0-16.712C213.375,474.623,224.665,474.623,236.504,474.623z"/>
</g>
</svg>
