<?xml version="1.0" encoding="iso-8859-1"?>
<!-- Generator: Adobe Illustrator 16.0.0, SVG Export Plug-In . SVG Version: 6.00 Build 0)  -->
<!DOCTYPE svg PUBLIC "-//W3C//DTD SVG 1.1//EN" "http://www.w3.org/Graphics/SVG/1.1/DTD/svg11.dtd">
<svg version="1.1" id="Layer_16" xmlns="http://www.w3.org/2000/svg" xmlns:xlink="http://www.w3.org/1999/xlink" x="0px" y="0px"
	 width="303.667px" height="302.583px" viewBox="147.14 267.945 303.667 302.583"
	 style="enable-background:new 147.14 267.945 303.667 302.583;" xml:space="preserve">
<g>
	<path style="fill-rule:evenodd;clip-rule:evenodd;" d="M240.98,490.173c-2.972-0.422-5.527-0.449-7.857-1.186
		c-5.346-1.693-8.156-7.002-6.16-12.303c1.926-5.113,4.758-9.881,6.875-14.932c0.845-2.014,1.553-4.535,1.122-6.57
		c-8.692-41.01-17.559-81.984-26.399-122.963c-0.14-0.648-0.38-1.275-0.741-2.462c-8.797,0-17.748,0.009-26.699-0.006
		c-1.998-0.003-4.025,0.12-5.986-0.172c-5.102-0.759-8.974-5.178-8.906-9.902c0.069-4.765,4.005-9.509,9.144-9.62
		c13.989-0.303,27.993-0.269,41.983-0.005c4.711,0.089,7.387,3.582,8.616,7.881c1.05,3.672,1.703,7.457,2.693,11.924
		c1.934,0,4.037,0,6.139,0c58.992-0.001,117.983-0.004,176.976,0c11.182,0.001,14.334,3.131,14.336,14.187
		c0.002,24.163,0.01,48.327-0.003,72.49c-0.005,9.178-2.655,12.356-11.7,13.428c-39.511,4.684-79.033,9.271-118.548,13.912
		c-13.851,1.627-27.695,3.311-42.021,5.025c2.613,7.289,3.201,14.07-1.922,20.957c3.122,0,4.936,0,6.75,0
		c43.994,0,87.987,0,131.981,0c0.5,0,1,0,1.5,0.002c8.76,0.012,13.615,3.355,13.885,9.562c0.268,6.184-4.428,9.881-13.127,10.361
		c-0.437,0.023-0.863,0.219-1.416,0.367c11.916,6.086,16.543,14.303,13.894,24.486c-2.422,9.312-10.901,15.58-20.36,15.051
		c-9.172-0.512-16.976-7.51-18.605-16.686c-1.705-9.596,3.768-18.277,15.138-22.848c-43.942,0-86.899,0-128.472,0
		c3.02,2.93,7.34,6.197,10.435,10.373c3.312,4.467,3.252,9.996,1.577,15.346c-2.684,8.57-11.297,14.414-20.328,13.795
		c-8.99-0.615-16.583-7.428-18.307-16.428C224.63,503.652,229.857,495.212,240.98,490.173z"/>
</g>
</svg>
