<?xml version="1.0" encoding="iso-8859-1"?>
<!-- Generator: Adobe Illustrator 16.0.0, SVG Export Plug-In . SVG Version: 6.00 Build 0)  -->
<!DOCTYPE svg PUBLIC "-//W3C//DTD SVG 1.1//EN" "http://www.w3.org/Graphics/SVG/1.1/DTD/svg11.dtd">
<svg version="1.1" id="Layer_5" xmlns="http://www.w3.org/2000/svg" xmlns:xlink="http://www.w3.org/1999/xlink" x="0px" y="0px"
	 width="303.667px" height="302.583px" viewBox="147.14 267.945 303.667 302.583"
	 style="enable-background:new 147.14 267.945 303.667 302.583;" xml:space="preserve">
<g>
	<path style="fill-rule:evenodd;clip-rule:evenodd;" d="M296.142,324.025c6.4-5.944,13.426-12.317,20.276-18.873
		c7.716-7.383,16.96-5.049,19.88,5.199c1.321,4.64,2.496,9.321,3.705,13.992c1.162,4.492,2.28,8.997,3.574,14.116
		c3.715-0.967,7.185-1.82,10.626-2.776c5.931-1.647,11.819-3.449,17.769-5.022c9.83-2.6,16.938,4.532,14.291,14.378
		c-2.495,9.282-5.184,18.514-7.934,28.289c7.911,2.013,15.445,3.921,22.975,5.85c1.934,0.495,3.863,1.013,5.771,1.593
		c9.614,2.92,12.052,12.17,5.083,19.326c-6.72,6.9-13.471,13.769-20.565,21.016c6.492,6.43,13.107,12.938,19.674,19.497
		c8.275,8.262,5.916,17.383-5.395,20.508c-8.949,2.473-17.968,4.695-27.512,7.174c2.719,9.686,5.249,19.102,8.029,28.441
		c1.398,4.695,0.367,8.434-3.141,11.756c-3.055,2.893-6.411,3.889-10.514,2.705c-9.549-2.756-19.131-5.398-29.076-8.191
		c-2.537,9.725-4.713,19.105-7.537,28.289c-0.902,2.932-3.023,6.002-5.468,7.828c-4.192,3.135-9.403,2.008-13.548-2.037
		c-6.906-6.742-13.756-13.545-21.242-20.924c-3.443,3.463-7.03,7.053-10.598,10.662c-3.395,3.436-6.692,6.973-10.168,10.322
		c-6.725,6.484-16.292,4.092-18.841-4.867c-2.721-9.562-5.03-19.24-7.623-29.271c-9.811,2.75-19.251,5.289-28.621,8.066
		c-4.505,1.336-8.102,0.34-11.35-2.947c-3.099-3.135-4.152-6.6-2.89-10.914c2.75-9.4,5.338-18.848,8.163-28.881
		c-7.104-1.857-13.947-3.652-20.792-5.436c-2.735-0.713-5.507-1.299-8.207-2.127c-9.258-2.838-11.71-12.197-4.979-19.092
		c6.738-6.9,13.567-13.713,21.799-22.021c-3.646-3.032-7.414-5.98-10.963-9.173c-3.464-3.116-6.744-6.442-10.037-9.744
		c-7.97-7.988-5.508-17.158,5.5-20.219c7.21-2.005,14.492-3.757,21.738-5.635c1.753-0.454,3.493-0.958,5.88-1.616
		c-2.03-7.333-3.998-14.463-5.981-21.587c-0.714-2.563-1.558-5.094-2.185-7.677c-2.078-8.56,5.145-15.82,13.71-13.58
		c9.624,2.517,19.163,5.358,29.172,8.181c2.537-9.733,4.707-19.11,7.531-28.286c0.9-2.925,3.016-6.062,5.491-7.79
		c4.556-3.18,9.28-2.052,13.566,1.965C282.34,311.2,289.534,317.872,296.142,324.025z"/>
</g>
</svg>
