<?xml version="1.0" encoding="iso-8859-1"?>
<!-- Generator: Adobe Illustrator 16.0.0, SVG Export Plug-In . SVG Version: 6.00 Build 0)  -->
<!DOCTYPE svg PUBLIC "-//W3C//DTD SVG 1.1//EN" "http://www.w3.org/Graphics/SVG/1.1/DTD/svg11.dtd">
<svg version="1.1" id="Layer_7" xmlns="http://www.w3.org/2000/svg" xmlns:xlink="http://www.w3.org/1999/xlink" x="0px" y="0px"
	 width="303.667px" height="302.583px" viewBox="147.14 267.945 303.667 302.583"
	 style="enable-background:new 147.14 267.945 303.667 302.583;" xml:space="preserve">
<path style="fill-rule:evenodd;clip-rule:evenodd;" d="M394.613,353.237c-1.007,1.912-1.709,3.791-2.86,5.335
	c-4.28,5.739-8.862,11.262-12.969,17.119c-0.981,1.4-0.687,3.776-0.736,5.71c-0.02,0.746,0.826,1.479,0.953,2.271
	c1.495,9.323,7.834,11.852,16.235,12.181c4.796,0.188,9.544,1.407,14.334,1.993c4.347,0.533,6.578,2.726,6.56,7.207
	c-0.045,10.664-0.044,21.33-0.001,31.994c0.017,4.443-2.197,6.707-6.498,7.324c-7.577,1.086-15.184,2.059-22.682,3.557
	c-1.996,0.398-4.113,2.189-5.371,3.926c-5.66,7.805-4.139,14.719,2.744,21.189c3.244,3.051,5.668,6.969,8.518,10.447
	c2.439,2.979,2.963,6.027,0.125,8.941c-7.889,8.1-15.805,16.174-23.844,24.125c-3.794,3.752-7.68,3.643-11.875,0.055
	c-5.438-4.648-11.147-9.002-16.961-13.174c-1.277-0.918-3.482-0.564-5.267-0.736c-0.288-0.029-0.593,0.322-0.911,0.377
	c-9.418,1.607-12.032,7.852-12.192,16.578c-0.097,5.254-1.726,10.48-2.673,15.719c-0.669,3.691-2.911,5.398-6.639,5.389
	c-10.998-0.031-21.996,0-32.993-0.02c-3.964-0.008-6.021-1.975-6.58-5.979c-1.126-8.076-2.342-16.148-3.902-24.146
	c-0.326-1.674-2.02-3.461-3.562-4.449c-7.395-4.732-14.093-4.494-20.458,2.459c-3.318,3.625-7.861,6.125-11.824,9.166
	c-3.113,2.391-6.103,2.424-8.94-0.4c-7.783-7.746-15.569-15.488-23.306-23.281c-3.653-3.68-3.671-7.434-0.344-11.508
	c4.425-5.414,8.748-10.93,12.761-16.652c0.981-1.398,0.79-3.77,0.741-5.684c-0.028-1.074-1.137-2.09-1.299-3.199
	c-1.349-9.203-7.84-10.922-15.663-11.334c-4.964-0.262-9.879-1.371-14.826-2.027c-4.115-0.545-6.251-2.752-6.245-6.971
	c0.015-10.83,0.009-21.662,0.003-32.494c-0.003-4.527,2.579-6.527,6.762-7.118c7.583-1.071,15.193-2.02,22.706-3.468
	c1.835-0.354,3.386-2.387,4.958-3.773c0.437-0.385,0.334-1.329,0.722-1.828c5.734-7.383,2.507-13.246-2.886-19.035
	c-3.283-3.523-6.008-7.56-9.103-11.266c-2.411-2.886-2.672-5.817-0.066-8.491c8.122-8.329,16.316-16.593,24.625-24.736
	c3.432-3.363,6.966-2.83,10.632,0.203c5.517,4.562,11.18,8.974,17.05,13.063c1.517,1.057,4.135,1.215,6.079,0.86
	c9.478-1.728,12.936-7.796,12.799-17.177c-0.074-5.062,1.648-10.151,2.57-15.227c0.669-3.688,2.905-5.407,6.636-5.397
	c10.998,0.029,21.996,0.006,32.994,0.015c3.964,0.003,6.058,1.934,6.62,5.936c1.135,8.077,2.33,16.154,3.884,24.156
	c0.325,1.677,2.037,3.422,3.567,4.47c7.69,5.266,14.434,3.776,20.885-2.731c3.481-3.513,7.893-6.104,11.876-9.12
	c2.796-2.118,5.681-2.178,8.146,0.271c8.149,8.09,16.211,16.27,24.192,24.525C393.013,349.615,393.605,351.441,394.613,353.237z
	 M296.196,380.776c-21.975-0.042-40.038,17.969-40.064,39.947c-0.026,21.967,18.021,40.086,39.948,40.11
	c21.954,0.023,40.011-18,40.065-39.992C336.199,398.9,318.171,380.819,296.196,380.776z"/>
</svg>
