<?xml version="1.0" encoding="iso-8859-1"?>
<!-- Generator: Adobe Illustrator 16.0.0, SVG Export Plug-In . SVG Version: 6.00 Build 0)  -->
<!DOCTYPE svg PUBLIC "-//W3C//DTD SVG 1.1//EN" "http://www.w3.org/Graphics/SVG/1.1/DTD/svg11.dtd">
<svg version="1.1" id="Layer_19" xmlns="http://www.w3.org/2000/svg" xmlns:xlink="http://www.w3.org/1999/xlink" x="0px" y="0px"
	 width="303.667px" height="302.583px" viewBox="147.14 267.945 303.667 302.583"
	 style="enable-background:new 147.14 267.945 303.667 302.583;" xml:space="preserve">
<g>
	<path style="fill-rule:evenodd;clip-rule:evenodd;" d="M266.233,540.757c-21.162,0-42.324,0.018-63.486-0.004
		c-27.229-0.025-46.568-19.365-46.58-46.607c-0.018-42.326-0.021-84.65,0.003-126.974c0.015-26.912,19.397-46.279,46.371-46.307
		c35.159-0.036,70.319-0.013,105.478-0.002c6.919,0.002,8.068,1.185,8.1,8.134c0.052,11.761,0.052,11.761-11.488,11.761
		c-33.493,0-66.986-0.01-100.479,0.004c-18.075,0.008-28.03,10.038-28.032,28.214c-0.005,41.324-0.009,82.649,0.005,123.973
		c0.006,17.748,10.126,27.891,27.874,27.9c41.491,0.021,82.982,0.025,124.474,0.004c17.418-0.008,27.646-10.215,27.685-27.59
		c0.034-14.996-0.013-29.994,0.021-44.99c0.014-5.982,1.397-7.33,7.314-7.414c12.631-0.178,12.629-0.178,12.627,12.609
		c-0.001,13.83,0.049,27.66-0.008,41.49c-0.107,26.215-19.654,45.727-45.889,45.789
		C308.891,540.798,287.562,540.757,266.233,540.757z"/>
	<path style="fill-rule:evenodd;clip-rule:evenodd;" d="M390.924,369.622c-1.402,1.95-2.376,3.777-3.776,5.181
		c-31.177,31.253-62.4,62.458-93.617,93.673c-7.038,7.037-7.434,7.039-14.284,0.188c-4.24-4.24-8.498-8.463-12.718-12.725
		c-4.451-4.494-4.48-5.811-0.042-10.256c18.832-18.863,37.688-37.701,56.535-56.546c13.193-13.192,26.365-26.406,39.618-39.538
		c1.285-1.273,3.076-2.034,5.006-3.272c-8.732-8.715-16.262-16.227-23.787-23.741c-1.414-1.412-2.891-2.771-4.205-4.272
		c-2.916-3.331-4.571-7.029-2.463-11.424c2.015-4.199,5.557-6.014,10.105-6.023c7.163-0.016,14.326-0.008,21.489-0.008
		c18.157-0.001,36.315-0.018,54.474,0.007c9.111,0.013,12.837,3.666,12.848,12.65c0.027,24.821-0.027,49.643,0.041,74.463
		c0.014,5.222-1.221,9.619-6.414,11.873c-5.176,2.247-8.979-0.395-12.434-3.835C408.818,387.563,400.368,379.077,390.924,369.622z"
		/>
</g>
</svg>
