<?xml version="1.0" encoding="iso-8859-1"?>
<!-- Generator: Adobe Illustrator 16.0.0, SVG Export Plug-In . SVG Version: 6.00 Build 0)  -->
<!DOCTYPE svg PUBLIC "-//W3C//DTD SVG 1.1//EN" "http://www.w3.org/Graphics/SVG/1.1/DTD/svg11.dtd">
<svg version="1.1" id="Layer_8" xmlns="http://www.w3.org/2000/svg" xmlns:xlink="http://www.w3.org/1999/xlink" x="0px" y="0px"
	 width="303.667px" height="302.583px" viewBox="147.14 267.945 303.667 302.583"
	 style="enable-background:new 147.14 267.945 303.667 302.583;" xml:space="preserve">
<g>
	<path style="fill-rule:evenodd;clip-rule:evenodd;" d="M296.13,541.423c-19.458,0-38.916,0.07-58.372-0.026
		c-11.845-0.059-22.826-2.877-30.006-13.117c-2.954-4.213-5.545-9.469-6.05-14.477c-2.17-21.538,0.221-42.594,10.069-62.232
		c6.268-12.503,16.25-20.271,30.414-22.228c3.895-0.537,7.273,0.077,10.641,2.242c5.921,3.808,11.762,7.975,18.177,10.728
		c20.86,8.957,40.982,6.798,60.045-5.472c0.848-0.545,1.621-1.235,2.521-1.666c4.325-2.06,8.578-5.429,13.052-5.771
		c7.702-0.585,14.997,2.368,21.242,7.186c8.416,6.49,13.383,15.393,16.682,25.215c5.004,14.896,7.018,30.334,6.315,45.984
		c-0.943,20.991-14.26,33.452-35.495,33.603C335.62,541.533,315.875,541.423,296.13,541.423z"/>
	<path style="fill-rule:evenodd;clip-rule:evenodd;" d="M296.052,437.631c-28.665,0.1-51.928-23.016-52.028-51.698
		c-0.1-28.708,22.99-51.923,51.726-52.007c28.729-0.084,51.909,22.957,52.022,51.708C347.884,414.26,324.739,437.53,296.052,437.631
		z"/>
	<path style="fill-rule:evenodd;clip-rule:evenodd;" d="M345.716,420.048c8.686-13.195,11.94-27.201,10.273-42.609
		c4.555,0.804,8.83,1.844,13.165,2.27c12.724,1.25,24.058-3.232,35.031-8.979c6.291-3.294,11.379-2.455,14.277,4.039
		c2.939,6.584,4.648,13.839,6.015,20.968c1.076,5.607,0.826,11.47,1.138,17.22c0.864,15.984-8.544,22.781-22.109,24.356
		c-6.688,0.779-13.529,0.323-20.298,0.242c-1.126-0.014-2.536-0.703-3.312-1.544C370.828,426.184,361.381,421.798,345.716,420.048z"
		/>
	<path style="fill-rule:evenodd;clip-rule:evenodd;" d="M234.836,377.403c0.753,7.464,0.762,15.019,2.452,22.176
		c1.655,7.013,5.021,13.621,7.67,20.494c-2.926,0.549-6.42,1.067-9.847,1.873c-8.799,2.071-16.076,6.727-22.416,13.115
		c-1.332,1.344-3.618,2.448-5.463,2.446c-7.613-0.007-15.335,0.229-22.811-0.943c-12.167-1.908-18.494-9.676-18.13-21.93
		c0.281-9.464,1.338-18.933,2.599-28.325c0.503-3.75,2.053-7.535,3.879-10.895c3.778-6.954,8.274-8.065,15.256-4.456
		c11.409,5.899,23.175,10.38,36.377,8.522C228.077,378.964,231.695,378.039,234.836,377.403z"/>
	<path style="fill-rule:evenodd;clip-rule:evenodd;" d="M373.673,299.346c19.083,0.058,34.662,15.62,34.626,34.586
		c-0.036,18.937-15.723,34.516-34.728,34.492c-18.783-0.024-34.286-15.523-34.391-34.38
		C339.077,315.014,354.71,299.289,373.673,299.346z"/>
	<path style="fill-rule:evenodd;clip-rule:evenodd;" d="M252.612,333.805c0.088,18.866-15.688,34.654-34.591,34.616
		c-18.786-0.038-34.31-15.436-34.528-34.249c-0.219-18.901,15.349-34.673,34.378-34.826
		C236.782,299.191,252.522,314.805,252.612,333.805z"/>
</g>
</svg>
