<?xml version="1.0" encoding="iso-8859-1"?>
<!-- Generator: Adobe Illustrator 16.0.0, SVG Export Plug-In . SVG Version: 6.00 Build 0)  -->
<!DOCTYPE svg PUBLIC "-//W3C//DTD SVG 1.1//EN" "http://www.w3.org/Graphics/SVG/1.1/DTD/svg11.dtd">
<svg version="1.1" id="Layer_18" xmlns="http://www.w3.org/2000/svg" xmlns:xlink="http://www.w3.org/1999/xlink" x="0px" y="0px"
	 width="303.667px" height="302.583px" viewBox="147.14 267.945 303.667 302.583"
	 style="enable-background:new 147.14 267.945 303.667 302.583;" xml:space="preserve">
<g>
	<path style="fill-rule:evenodd;clip-rule:evenodd;" d="M295.632,336.203c11.28-7.867,22.084-16.558,33.938-23.443
		c30.535-17.738,75.283-8.617,94.098,19.664c15.156,22.782,16.344,47.78,6.223,73.044c-7.137,17.813-19.519,32.045-33.143,45.202
		c-30.316,29.275-60.732,58.449-91.083,87.689c-7.359,7.092-11.713,7.08-19.082-0.033c-31.884-30.771-63.931-61.379-95.648-92.322
		c-15.966-15.574-28.738-33.418-33.182-55.827c-5.453-27.496,2.516-63.508,34.844-78.32c27.023-12.382,53.752-11.199,78.777,5.924
		C279.984,323.673,288.028,330.395,295.632,336.203z"/>
</g>
</svg>
