<?xml version="1.0" encoding="iso-8859-1"?>
<!-- Generator: Adobe Illustrator 16.0.0, SVG Export Plug-In . SVG Version: 6.00 Build 0)  -->
<!DOCTYPE svg PUBLIC "-//W3C//DTD SVG 1.1//EN" "http://www.w3.org/Graphics/SVG/1.1/DTD/svg11.dtd">
<svg version="1.1" id="Layer_21" xmlns="http://www.w3.org/2000/svg" xmlns:xlink="http://www.w3.org/1999/xlink" x="0px" y="0px"
	 width="303.667px" height="302.583px" viewBox="147.14 267.945 303.667 302.583"
	 style="enable-background:new 147.14 267.945 303.667 302.583;" xml:space="preserve">
<g>
	<path style="fill-rule:evenodd;clip-rule:evenodd;" d="M336.87,364.758c-30.493,0-60.986,0.005-91.48-0.003
		c-6.884-0.002-8.208-1.31-8.223-8.093c-0.018-8.165-0.035-16.33,0.006-24.495c0.028-5.592,1.606-7.291,6.995-7.293
		c61.987-0.023,123.974-0.023,185.96-0.001c5.227,0.002,6.922,1.67,6.966,6.826c0.075,8.665,0.066,17.33,0.005,25.994
		c-0.037,5.44-1.693,7.049-7.248,7.053C398.858,364.771,367.865,364.758,336.87,364.758z"/>
	<path style="fill-rule:evenodd;clip-rule:evenodd;" d="M337.374,404.859c30.494,0.001,60.988-0.005,91.482,0.005
		c6.953,0.003,8.234,1.254,8.254,8.059c0.024,8.332,0.058,16.665-0.016,24.995c-0.046,5.129-1.769,6.824-6.969,6.826
		c-61.988,0.021-123.975,0.021-185.963,0c-5.352-0.002-6.964-1.738-6.991-7.309c-0.04-8.332-0.036-16.665-0.002-24.996
		c0.024-6.144,1.47-7.57,7.723-7.574C275.72,404.85,306.547,404.858,337.374,404.859z"/>
	<path style="fill-rule:evenodd;clip-rule:evenodd;" d="M337.376,484.859c30.494,0,60.988-0.006,91.481,0.004
		c6.94,0.002,8.233,1.264,8.253,8.062c0.023,8.332,0.057,16.664-0.017,24.996c-0.046,5.127-1.768,6.82-6.97,6.822
		c-61.988,0.021-123.975,0.021-185.962,0c-5.349-0.002-6.959-1.736-6.988-7.311c-0.042-8.332-0.035-16.664-0.003-24.994
		c0.024-6.141,1.47-7.57,7.725-7.574C275.722,484.849,306.55,484.857,337.376,484.859z"/>
	<path style="fill-rule:evenodd;clip-rule:evenodd;" d="M187.144,314.876c16.35-0.084,29.861,13.366,29.951,29.812
		c0.089,16.355-13.38,29.976-29.723,30.056c-16.455,0.081-29.955-13.145-30.192-29.578
		C156.941,328.569,170.403,314.961,187.144,314.876z"/>
	<path style="fill-rule:evenodd;clip-rule:evenodd;" d="M217.094,424.972c-0.121,16.418-13.693,29.887-30.003,29.771
		c-16.69-0.119-30.207-13.838-29.908-30.357c0.298-16.5,13.733-29.611,30.243-29.512
		C203.788,394.972,217.215,408.592,217.094,424.972z"/>
	<path style="fill-rule:evenodd;clip-rule:evenodd;" d="M157.181,504.517c0.211-16.678,13.958-29.982,30.614-29.633
		c16.417,0.346,29.666,14.119,29.293,30.455c-0.376,16.471-14.096,29.756-30.366,29.402
		C170.19,534.382,156.973,520.861,157.181,504.517z"/>
</g>
</svg>
