<?xml version="1.0" encoding="iso-8859-1"?>
<!-- Generator: Adobe Illustrator 16.0.0, SVG Export Plug-In . SVG Version: 6.00 Build 0)  -->
<!DOCTYPE svg PUBLIC "-//W3C//DTD SVG 1.1//EN" "http://www.w3.org/Graphics/SVG/1.1/DTD/svg11.dtd">
<svg version="1.1" id="Layer_10" xmlns="http://www.w3.org/2000/svg" xmlns:xlink="http://www.w3.org/1999/xlink" x="0px" y="0px"
	 width="303.667px" height="302.583px" viewBox="147.14 267.945 303.667 302.583"
	 style="enable-background:new 147.14 267.945 303.667 302.583;" xml:space="preserve">
<g>
	<path style="fill-rule:evenodd;clip-rule:evenodd;" d="M213.157,379.963c-0.016-38.526,28.555-72.923,65.546-78.905
		c40.787-6.596,79.016,16.18,90.802,54.771c5.762,18.862,5.255,37.687-3.422,55.967c-18.047,38.019-36.063,76.056-53.672,114.279
		c-6.623,14.377-22.595,17.434-32.402,8.434c-2.37-2.176-4.25-5.143-5.644-8.084c-18.53-39.078-36.917-78.223-55.381-117.332
		C214.62,399.846,213.308,390.03,213.157,379.963z M333.144,379.541c-0.174-21.998-18.34-39.947-40.249-39.765
		c-22.026,0.184-40,18.377-39.764,40.249c0.238,22.073,18.35,39.988,40.248,39.81C315.359,419.655,333.316,401.459,333.144,379.541z
		"/>
</g>
</svg>
