<?xml version="1.0" encoding="iso-8859-1"?>
<!-- Generator: Adobe Illustrator 16.0.0, SVG Export Plug-In . SVG Version: 6.00 Build 0)  -->
<!DOCTYPE svg PUBLIC "-//W3C//DTD SVG 1.1//EN" "http://www.w3.org/Graphics/SVG/1.1/DTD/svg11.dtd">
<svg version="1.1" id="Layer_17" xmlns="http://www.w3.org/2000/svg" xmlns:xlink="http://www.w3.org/1999/xlink" x="0px" y="0px"
	 width="303.667px" height="302.583px" viewBox="147.14 267.945 303.667 302.583"
	 style="enable-background:new 147.14 267.945 303.667 302.583;" xml:space="preserve">
<g>
	<path style="fill-rule:evenodd;clip-rule:evenodd;" d="M187.012,359.056c0-21.571,13.813-43.567,35.934-51.997
		c24.005-9.148,46.501-5.491,65.143,12.782c31.412,30.791,62.305,62.112,93.391,93.236c3.901,3.906,3.924,6.128,0.36,10.286
		c-0.974,1.137-2.062,2.182-3.156,3.203c-4.915,4.584-6.951,4.574-11.68-0.15c-30.407-30.392-60.797-60.802-91.205-91.194
		c-11.632-11.625-25.227-16.323-41.434-11.553c-25.403,7.479-36.15,40.56-19.934,61.431c1.938,2.494,4.027,4.897,6.257,7.131
		c39.329,39.38,78.694,78.724,118.039,118.089c5.8,5.801,12.321,10.004,20.798,10.738c18.02,1.561,30.404-13.125,24.867-30.518
		c-1.793-5.631-5.234-11.309-9.383-15.529c-29.434-29.945-59.217-59.549-89.008-89.144c-2.022-2.009-4.964-4.174-7.552-4.268
		c-3.459-0.126-7.515,0.938-10.353,2.89c-3.353,2.306-3.882,6.688-2.23,10.465c1.228,2.807,3.127,5.502,5.293,7.687
		c19.708,19.88,39.546,39.634,59.33,59.441c2.205,2.207,5.726,4.787,3.328,7.918c-2.994,3.908-7.227,6.945-11.258,9.902
		c-0.645,0.473-3.37-1.1-4.57-2.293c-20.919-20.791-42.008-41.422-62.513-62.617c-14.409-14.895-13.577-34.794,1.038-47.136
		c10.712-9.046,27.827-9.192,38.848-0.294c1.812,1.463,3.586,2.993,5.232,4.638c29.474,29.439,58.904,58.924,88.394,88.348
		c11.754,11.73,17.395,25.629,16.162,42.367c-1.438,19.547-18.553,36.475-38.131,37.908c-16.814,1.232-30.592-4.646-42.291-16.355
		c-40.163-40.195-80.399-80.318-120.503-120.573C192.658,392.283,186.698,378.186,187.012,359.056z"/>
</g>
</svg>
