<?xml version="1.0" encoding="iso-8859-1"?>
<!-- Generator: Adobe Illustrator 16.0.0, SVG Export Plug-In . SVG Version: 6.00 Build 0)  -->
<!DOCTYPE svg PUBLIC "-//W3C//DTD SVG 1.1//EN" "http://www.w3.org/Graphics/SVG/1.1/DTD/svg11.dtd">
<svg version="1.1" id="Layer_9" xmlns="http://www.w3.org/2000/svg" xmlns:xlink="http://www.w3.org/1999/xlink" x="0px" y="0px"
	 width="303.667px" height="302.583px" viewBox="147.14 267.945 303.667 302.583"
	 style="enable-background:new 147.14 267.945 303.667 302.583;" xml:space="preserve">
<g>
	<path style="fill-rule:evenodd;clip-rule:evenodd;" d="M261.5,513.277c-16.763,0-32.832,0-48.901,0
		c-9.369,0-18.736,0.012-28.104-0.002c-11.38-0.016-16.691-5.27-16.695-16.541c-0.009-30.604-0.001-61.204,0-91.805
		c0-33.255-0.005-66.512,0.004-99.767c0.003-11.42,5.198-16.665,16.548-16.667c51.523-0.011,103.046-0.012,154.568,0.002
		c10.807,0.003,16.2,5.335,16.229,16.05c0.038,14.053-0.1,28.106,0.13,42.153c0.032,1.953,1.447,4.093,2.729,5.757
		c1.403,1.825,3.465,3.128,5.119,4.779c18.232,18.199,36.426,36.438,54.665,54.631c8.257,8.237,12.422,18.024,12.37,29.792
		c-0.135,30.758-0.037,61.516-0.049,92.273c-0.005,11.649-5.205,16.823-16.885,16.823c-44.965,0.006-89.931,0.008-134.896,0
		c-11.655-0.002-16.818-5.191-16.832-16.871C261.493,527.203,261.5,520.52,261.5,513.277z M411.198,438.317c-2.01,0-3.699,0-5.389,0
		c-17.795,0-35.59,0.025-53.386-0.01c-10.421-0.02-15.936-5.506-15.953-15.854c-0.031-17.952-0.01-35.902-0.01-53.854
		c-0.001-1.651-0.001-3.302-0.001-4.881c-19.104,0-37.575,0-55.877,0c0,56.301,0,112.242,0,168.129c43.723,0,87.057,0,130.615,0
		C411.198,500.728,411.198,469.877,411.198,438.317z M261.165,325.969c16.397,0,32.794,0.012,49.191-0.006
		c6.072-0.006,7.313-1.299,7.362-7.469c0.009-1.249,0.009-2.498,0.002-3.748c-0.038-6.392-1.242-7.603-7.685-7.605
		c-31.076-0.008-62.152-0.003-93.229-0.003c-11.695,0-11.695,0-11.57,11.668c0.062,5.781,1.392,7.146,7.205,7.155
		C228.684,325.983,244.925,325.968,261.165,325.969z M396.815,419.55c-13.806-13.805-27.819-27.815-41.264-41.258
		c0,13.021,0,27.105,0,41.258C369.816,419.55,383.688,419.55,396.815,419.55z"/>
</g>
</svg>
