<?xml version="1.0" encoding="iso-8859-1"?>
<!-- Generator: Adobe Illustrator 16.0.0, SVG Export Plug-In . SVG Version: 6.00 Build 0)  -->
<!DOCTYPE svg PUBLIC "-//W3C//DTD SVG 1.1//EN" "http://www.w3.org/Graphics/SVG/1.1/DTD/svg11.dtd">
<svg version="1.1" id="Layer_15" xmlns="http://www.w3.org/2000/svg" xmlns:xlink="http://www.w3.org/1999/xlink" x="0px" y="0px"
	 width="303.667px" height="302.583px" viewBox="147.14 267.945 303.667 302.583"
	 style="enable-background:new 147.14 267.945 303.667 302.583;" xml:space="preserve">
<g>
	<path style="fill:#FFFFFF;" d="M289.719,464.757c5.333,0,10.667-0.109,15.995,0.031c5,0.133,7.42-2.213,8.74-6.994
		c1.17-4.238,2.525-9.102,5.457-12.029c5.313-5.309,11.481-10.021,17.957-13.863c27.677-16.422,31.132-43.994,22.721-63.507
		c-11.768-27.298-34.428-40.909-62.981-43.066c-32.904-2.485-58.302,11.84-75.718,39.984c-2.711,4.382-2.239,6.96,2.028,10.244
		c7.522,5.79,15.079,11.537,22.679,17.225c4.804,3.594,7.455,3.228,11.534-1.356c3.762-4.229,7.38-8.595,11.292-12.68
		c10.019-10.463,29.148-11.199,40.112-1.673c3.928,3.412,5.528,7.551,4.911,12.868c-1.063,9.159-7.936,12.835-14.758,16.853
		c-5.996,3.531-12.202,6.905-17.568,11.267c-11.764,9.563-18.297,21.797-16.985,37.504c0.568,6.801,2.827,9.18,9.588,9.191
		C279.721,464.765,284.72,464.757,289.719,464.757z M290.142,524.753c5.819,0,11.641,0.082,17.459-0.023
		c4.947-0.09,7.414-2.412,7.467-7.348c0.125-11.639,0.117-23.281,0.008-34.92c-0.049-5.252-2.438-7.543-7.729-7.578
		c-11.307-0.078-22.615-0.072-33.922-0.006c-5.941,0.033-8.21,2.264-8.243,8.088c-0.063,11.309-0.069,22.615,0.005,33.924
		c0.036,5.48,2.396,7.76,7.994,7.848C278.833,524.824,284.488,524.757,290.142,524.753z"/>
	<path style="fill-rule:evenodd;clip-rule:evenodd;" d="M289.719,464.757c-4.999,0-9.998,0.008-14.997-0.002
		c-6.762-0.012-9.021-2.391-9.588-9.191c-1.312-15.707,5.222-27.941,16.985-37.504c5.366-4.361,11.572-7.735,17.568-11.267
		c6.822-4.018,13.694-7.693,14.758-16.853c0.617-5.317-0.983-9.456-4.911-12.868c-10.964-9.526-30.093-8.79-40.112,1.673
		c-3.912,4.085-7.53,8.451-11.292,12.68c-4.079,4.584-6.73,4.95-11.534,1.356c-7.6-5.688-15.157-11.435-22.679-17.225
		c-4.267-3.284-4.739-5.862-2.028-10.244c17.416-28.145,42.814-42.47,75.718-39.984c28.554,2.157,51.214,15.769,62.981,43.066
		c8.411,19.514,4.956,47.085-22.721,63.507c-6.476,3.842-12.644,8.555-17.957,13.863c-2.932,2.928-4.287,7.791-5.457,12.029
		c-1.32,4.781-3.74,7.127-8.74,6.994C300.386,464.648,295.052,464.757,289.719,464.757z"/>
	<path style="fill-rule:evenodd;clip-rule:evenodd;" d="M290.142,524.755c-5.654,0.002-11.309,0.068-16.961-0.018
		c-5.598-0.088-7.958-2.367-7.994-7.848c-0.074-11.309-0.069-22.615-0.005-33.924c0.033-5.824,2.302-8.055,8.243-8.088
		c11.307-0.066,22.616-0.072,33.922,0.006c5.291,0.035,7.68,2.326,7.729,7.578c0.109,11.639,0.117,23.281-0.008,34.92
		c-0.053,4.936-2.52,7.258-7.467,7.348C301.782,524.835,295.961,524.753,290.142,524.755z"/>
</g>
</svg>
