<?xml version="1.0" encoding="iso-8859-1"?>
<!-- Generator: Adobe Illustrator 16.0.0, SVG Export Plug-In . SVG Version: 6.00 Build 0)  -->
<!DOCTYPE svg PUBLIC "-//W3C//DTD SVG 1.1//EN" "http://www.w3.org/Graphics/SVG/1.1/DTD/svg11.dtd">
<svg version="1.1" id="Layer_11" xmlns="http://www.w3.org/2000/svg" xmlns:xlink="http://www.w3.org/1999/xlink" x="0px" y="0px"
	 width="303.667px" height="302.583px" viewBox="147.14 267.945 303.667 302.583"
	 style="enable-background:new 147.14 267.945 303.667 302.583;" xml:space="preserve">
<g>
	<path style="fill-rule:evenodd;clip-rule:evenodd;" d="M410.476,290.822c12.875,0.034,12.699,0.032,12.502,12.781
		c-0.666,43.014-16.082,79.859-46.35,110.335c-10.314,10.385-21.457,19.942-31.993,30.114c-1.783,1.721-3.257,4.586-3.427,7.023
		c-1.223,17.604-1.919,35.244-3.217,52.84c-0.185,2.494-2.142,5.783-4.267,7.062c-18.81,11.34-37.864,22.27-56.788,33.42
		c-3.306,1.947-5.792,1.344-8.475-1.148c-11.162-10.369-11.189-10.324-6.673-24.969c2.944-9.545,5.98-19.066,8.642-28.691
		c0.455-1.643-0.149-4.357-1.315-5.551c-12.928-13.225-25.997-26.316-39.249-39.217c-1.25-1.217-4.221-1.672-6.017-1.16
		c-12.48,3.553-24.901,7.332-37.25,11.322c-3.541,1.145-6.011,0.453-8.486-2.1c-13.221-13.635-12.301-9.064-3.518-24.418
		c9.091-15.894,18.499-31.607,27.593-47.499c2.053-3.588,4.651-5.136,8.77-5.32c17.63-0.792,35.257-1.712,52.86-2.938
		c2.218-0.154,4.802-1.962,6.349-3.752c15.709-18.186,32.099-35.594,51.377-50.169c21.824-16.499,46.474-24.823,73.491-26.893
		C400.18,291.501,405.329,291.179,410.476,290.822z M388.146,340.765c0.007-8.219-6.709-14.973-14.909-14.993
		c-8.276-0.021-15.009,6.573-15.107,14.796c-0.101,8.456,6.716,15.323,15.159,15.272
		C381.457,355.792,388.14,349.011,388.146,340.765z"/>
</g>
</svg>
