<?xml version="1.0" encoding="iso-8859-1"?>
<!-- Generator: Adobe Illustrator 16.0.0, SVG Export Plug-In . SVG Version: 6.00 Build 0)  -->
<!DOCTYPE svg PUBLIC "-//W3C//DTD SVG 1.1//EN" "http://www.w3.org/Graphics/SVG/1.1/DTD/svg11.dtd">
<svg version="1.1" id="Layer_12" xmlns="http://www.w3.org/2000/svg" xmlns:xlink="http://www.w3.org/1999/xlink" x="0px" y="0px"
	 width="303.667px" height="302.583px" viewBox="147.14 267.945 303.667 302.583"
	 style="enable-background:new 147.14 267.945 303.667 302.583;" xml:space="preserve">
<g>
	<path style="fill-rule:evenodd;clip-rule:evenodd;" d="M341.404,492.167c-57.368,38.438-124.567,14.645-153.003-26.654
		c-30.89-44.862-25.534-105.9,13.095-142.633c40.732-38.733,101.664-41.6,146.072-6.34c39.99,31.753,56.287,95.203,21.447,147.561
		c1.146,1.225,2.326,2.559,3.582,3.816c16.018,16.035,32.082,32.02,48.053,48.1c7.469,7.52,9.311,15.477,5.768,23.527
		c-5.854,13.295-21.98,16.301-32.693,5.834c-12.99-12.693-25.767-25.607-38.545-38.516
		C350.395,502.029,345.866,496.943,341.404,492.167z M208.119,401.878c0.088,38.739,31.214,69.915,69.87,69.981
		c38.866,0.068,70.208-31.283,70.168-70.186c-0.039-38.852-31.524-70.132-70.372-69.913
		C239.093,331.978,208.031,363.24,208.119,401.878z"/>
</g>
</svg>
