<?xml version="1.0" encoding="iso-8859-1"?>
<!-- Generator: Adobe Illustrator 16.0.0, SVG Export Plug-In . SVG Version: 6.00 Build 0)  -->
<!DOCTYPE svg PUBLIC "-//W3C//DTD SVG 1.1//EN" "http://www.w3.org/Graphics/SVG/1.1/DTD/svg11.dtd">
<svg version="1.1" id="Layer_13" xmlns="http://www.w3.org/2000/svg" xmlns:xlink="http://www.w3.org/1999/xlink" x="0px" y="0px"
	 width="303.667px" height="302.583px" viewBox="147.14 267.945 303.667 302.583"
	 style="enable-background:new 147.14 267.945 303.667 302.583;" xml:space="preserve">
<g>
	<path style="fill-rule:evenodd;clip-rule:evenodd;" d="M310.161,458.757c-21.819,0-42.95,0-64.081,0
		c-1.666,0-3.333,0.059-4.996-0.014c-6.771-0.297-10.837-4.244-10.877-11.094c-0.111-19.152-0.106-38.305-0.006-57.457
		c0.039-7.35,4.138-11.284,11.638-11.309c20.818-0.069,41.636-0.026,62.454-0.028c1.791,0,3.581,0,5.873,0
		c0-9.46-0.004-18.405,0-27.352c0.003-5.829-0.105-11.661,0.064-17.485c0.121-4.134,2.123-7.311,5.93-9.134
		c3.932-1.883,7.462-0.837,10.668,1.759c1.161,0.939,2.23,2,3.288,3.058c26.384,26.374,52.766,52.751,79.138,79.137
		c7.689,7.693,7.728,12.177,0.145,19.764c-26.488,26.506-52.99,52.998-79.488,79.492c-0.824,0.824-1.623,1.686-2.518,2.426
		c-3.262,2.707-6.814,4.234-11.026,2.273c-4.226-1.969-6.163-5.459-6.181-10c-0.049-12.656-0.021-25.314-0.023-37.971
		C310.161,463.019,310.161,461.214,310.161,458.757z"/>
	<path style="fill-rule:evenodd;clip-rule:evenodd;" d="M170.161,418.73c-0.001-17.822-0.014-35.644,0.002-53.465
		c0.024-26.93,19.366-46.345,46.25-46.403c15.323-0.033,30.646-0.02,45.969,0.004c6.205,0.01,7.536,1.326,7.805,7.577
		c0.072,1.662,0.115,3.333,0.03,4.993c-0.3,5.919-1.727,7.306-7.59,7.314c-15.157,0.021-30.313-0.031-45.469,0.018
		c-16.732,0.054-27.02,10.396-27.032,27.182c-0.025,35.144-0.023,70.288,0,105.43c0.011,17.098,10.266,27.418,27.282,27.467
		c14.99,0.041,29.98-0.016,44.971,0.023c6.479,0.016,7.573,1.105,7.808,7.467c0.068,1.828,0.118,3.668,0.002,5.49
		c-0.351,5.557-1.805,6.914-7.457,6.922c-15.823,0.023-31.646,0.094-47.468-0.012c-25.262-0.17-44.901-19.771-45.077-45.045
		C170.059,455.373,170.162,437.052,170.161,418.73z"/>
</g>
</svg>
