<?xml version="1.0" encoding="iso-8859-1"?>
<!-- Generator: Adobe Illustrator 16.0.0, SVG Export Plug-In . SVG Version: 6.00 Build 0)  -->
<!DOCTYPE svg PUBLIC "-//W3C//DTD SVG 1.1//EN" "http://www.w3.org/Graphics/SVG/1.1/DTD/svg11.dtd">
<svg version="1.1" id="Layer_14" xmlns="http://www.w3.org/2000/svg" xmlns:xlink="http://www.w3.org/1999/xlink" x="0px" y="0px"
	 width="303.667px" height="302.583px" viewBox="147.14 267.945 303.667 302.583"
	 style="enable-background:new 147.14 267.945 303.667 302.583;" xml:space="preserve">
<g>
	<path style="fill-rule:evenodd;clip-rule:evenodd;" d="M294.062,538.757c-22.324,0-44.648,0.072-66.972-0.025
		c-13.683-0.061-26.398-3.23-34.75-15.031c-3.437-4.857-6.476-10.912-7.081-16.695c-2.624-25.08,0.255-49.57,11.759-72.402
		c7.281-14.45,18.917-23.571,35.333-25.261c3.654-0.376,7.794,0.83,11.238,2.366c4.209,1.878,7.847,4.998,11.86,7.363
		c26.029,15.336,52.031,15.133,77.951-0.309c1.572-0.937,3-2.146,4.631-2.951c4.823-2.383,9.592-6.185,14.607-6.584
		c8.937-0.711,17.271,2.898,24.572,8.292c8.018,5.923,13.324,13.994,16.982,23.035c8.329,20.58,11.26,42.119,9.234,64.139
		c-1.697,18.439-14.551,31.178-32.949,33.244c-7.746,0.871-15.621,0.742-23.438,0.789
		C329.38,538.83,311.721,538.757,294.062,538.757z"/>
	<path style="fill-rule:evenodd;clip-rule:evenodd;" d="M294.349,298.859c33.235,0.133,59.904,26.979,59.766,60.163
		c-0.138,33.158-27.043,59.864-60.179,59.734c-33.172-0.129-59.919-27.046-59.771-60.15
		C234.313,325.36,261.141,298.727,294.349,298.859z"/>
</g>
</svg>
